<?xml version="1.0" encoding="UTF-8"?>
<svg width="18px" height="18px" viewBox="0 0 18 18" version="1.1" xmlns="http://www.w3.org/2000/svg" xmlns:xlink="http://www.w3.org/1999/xlink">
    <!-- Generator: Sketch 55.2 (78181) - https://sketchapp.com -->
    <title>Fill 4</title>
    <desc>Created with Sketch.</desc>
    <g id="Download-Kubernetes" stroke="none" stroke-width="1" fill="none" fill-rule="evenodd">
        <g id="dlk8s-2" transform="translate(-1380.000000, -11.000000)" fill="#FFFFFF">
            <path d="M1388.99917,11 C1384.02996,11 1380,15.1313785 1380,20.2280481 C1380,24.305044 1382.57853,27.7634377 1386.15489,28.9836474 C1386.60518,29.0686202 1386.76927,28.783678 1386.76927,28.5389563 C1386.76927,28.3202929 1386.76153,27.7396453 1386.75711,26.9697916 C1384.25372,27.5272133 1383.72553,25.7325873 1383.72553,25.7325873 C1383.31612,24.6664617 1382.72605,24.3826525 1382.72605,24.3826525 C1381.9089,23.8105022 1382.78793,23.8218319 1382.78793,23.8218319 C1383.69127,23.8869777 1384.16643,24.772961 1384.16643,24.772961 C1384.96921,26.1829433 1386.27312,25.7756402 1386.78584,25.5394158 C1386.86761,24.9434731 1387.10022,24.5367365 1387.35713,24.3061769 C1385.35873,24.0733514 1383.25756,23.2814047 1383.25756,19.7454025 C1383.25756,18.7381914 1383.6084,17.913955 1384.18411,17.2692946 C1384.09129,17.0359026 1383.78244,16.0972362 1384.27251,14.8271758 C1384.27251,14.8271758 1385.02778,14.5790551 1386.74717,15.7732065 C1387.46487,15.5681387 1388.23506,15.4661714 1389.00028,15.462206 C1389.76494,15.4661714 1390.53458,15.5681387 1391.25338,15.7732065 C1392.97167,14.5790551 1393.72584,14.8271758 1393.72584,14.8271758 C1394.21701,16.0972362 1393.90816,17.0359026 1393.81589,17.2692946 C1394.39271,17.913955 1394.74078,18.7381914 1394.74078,19.7454025 C1394.74078,23.2904685 1392.6363,24.070519 1390.63182,24.2988126 C1390.95448,24.5837548 1391.24233,25.1468414 1391.24233,26.0078993 C1391.24233,27.2411381 1391.23128,28.2364531 1391.23128,28.5389563 C1391.23128,28.7859439 1391.39372,29.0731521 1391.85009,28.9830809 C1395.42368,27.7600388 1398,24.303911 1398,20.2280481 C1398,15.1313785 1393.97004,11 1388.99917,11" id="Fill-4"></path>
        </g>
    </g>
</svg>