<?xml version="1.0" encoding="UTF-8"?>
<svg width="18px" height="18px" viewBox="0 0 18 18" version="1.1" xmlns="http://www.w3.org/2000/svg" xmlns:xlink="http://www.w3.org/1999/xlink">
    <!-- Generator: Sketch 55.2 (78181) - https://sketchapp.com -->
    <title>slack-icon-white</title>
    <desc>Created with Sketch.</desc>
    <g id="Download-Kubernetes" stroke="none" stroke-width="1" fill="none" fill-rule="evenodd">
        <g id="dlk8s-2" transform="translate(-1348.000000, -11.000000)" fill="#FFFFFF" fill-rule="nonzero">
            <g id="slack-icon-white" transform="translate(1348.000000, 11.000000)">
                <g id="Group" transform="translate(0.000000, 9.435484)">
                    <path d="M3.83225806,1.91612903 C3.83225806,2.94677419 2.99032258,3.78870968 1.95967742,3.78870968 C0.929032258,3.78870968 0.0870967742,2.94677419 0.0870967742,1.91612903 C0.0870967742,0.885483871 0.929032258,0.0435483871 1.95967742,0.0435483871 L3.83225806,0.0435483871 L3.83225806,1.91612903 Z" id="Path"></path>
                    <path d="M4.77580645,1.91612903 C4.77580645,0.885483871 5.61774194,0.0435483871 6.6483871,0.0435483871 C7.67903226,0.0435483871 8.52096774,0.885483871 8.52096774,1.91612903 L8.52096774,6.60483871 C8.52096774,7.63548387 7.67903226,8.47741935 6.6483871,8.47741935 C5.61774194,8.47741935 4.77580645,7.63548387 4.77580645,6.60483871 C4.77580645,6.60483871 4.77580645,1.91612903 4.77580645,1.91612903 Z" id="Path"></path>
                </g>
                <g id="Group">
                    <path d="M6.6483871,3.83225806 C5.61774194,3.83225806 4.77580645,2.99032258 4.77580645,1.95967742 C4.77580645,0.929032258 5.61774194,0.0870967742 6.6483871,0.0870967742 C7.67903226,0.0870967742 8.52096774,0.929032258 8.52096774,1.95967742 L8.52096774,3.83225806 L6.6483871,3.83225806 Z" id="Path"></path>
                    <path d="M6.6483871,4.77580645 C7.67903226,4.77580645 8.52096774,5.61774194 8.52096774,6.6483871 C8.52096774,7.67903226 7.67903226,8.52096774 6.6483871,8.52096774 L1.95967742,8.52096774 C0.929032258,8.52096774 0.0870967742,7.67903226 0.0870967742,6.6483871 C0.0870967742,5.61774194 0.929032258,4.77580645 1.95967742,4.77580645 C1.95967742,4.77580645 6.6483871,4.77580645 6.6483871,4.77580645 Z" id="Path"></path>
                </g>
                <g id="Group" transform="translate(9.435484, 0.000000)">
                    <path d="M4.73225806,6.6483871 C4.73225806,5.61774194 5.57419355,4.77580645 6.60483871,4.77580645 C7.63548387,4.77580645 8.47741935,5.61774194 8.47741935,6.6483871 C8.47741935,7.67903226 7.63548387,8.52096774 6.60483871,8.52096774 L4.73225806,8.52096774 L4.73225806,6.6483871 Z" id="Path"></path>
                    <path d="M3.78870968,6.6483871 C3.78870968,7.67903226 2.94677419,8.52096774 1.91612903,8.52096774 C0.885483871,8.52096774 0.0435483871,7.67903226 0.0435483871,6.6483871 L0.0435483871,1.95967742 C0.0435483871,0.929032258 0.885483871,0.0870967742 1.91612903,0.0870967742 C2.94677419,0.0870967742 3.78870968,0.929032258 3.78870968,1.95967742 L3.78870968,6.6483871 Z" id="Path"></path>
                </g>
                <g id="Group" transform="translate(9.435484, 9.435484)">
                    <path d="M1.91612903,4.73225806 C2.94677419,4.73225806 3.78870968,5.57419355 3.78870968,6.60483871 C3.78870968,7.63548387 2.94677419,8.47741935 1.91612903,8.47741935 C0.885483871,8.47741935 0.0435483871,7.63548387 0.0435483871,6.60483871 L0.0435483871,4.73225806 L1.91612903,4.73225806 Z" id="Path"></path>
                    <path d="M1.91612903,3.78870968 C0.885483871,3.78870968 0.0435483871,2.94677419 0.0435483871,1.91612903 C0.0435483871,0.885483871 0.885483871,0.0435483871 1.91612903,0.0435483871 L6.60483871,0.0435483871 C7.63548387,0.0435483871 8.47741935,0.885483871 8.47741935,1.91612903 C8.47741935,2.94677419 7.63548387,3.78870968 6.60483871,3.78870968 L1.91612903,3.78870968 Z" id="Path"></path>
                </g>
            </g>
        </g>
    </g>
</svg>