<?xml version="1.0" encoding="UTF-8"?>
<svg width="18px" height="15px" viewBox="0 0 18 15" version="1.1" xmlns="http://www.w3.org/2000/svg" xmlns:xlink="http://www.w3.org/1999/xlink">
    <!-- Generator: Sketch 55.2 (78181) - https://sketchapp.com -->
    <title>Twitter_Bird</title>
    <desc>Created with Sketch.</desc>
    <g id="Download-Kubernetes" stroke="none" stroke-width="1" fill="none" fill-rule="evenodd">
        <g id="dlk8s-2" transform="translate(-1412.000000, -13.000000)" fill="#FFFFFF" fill-rule="nonzero">
            <g id="Twitter_Bird" transform="translate(1412.000000, 13.000000)">
                <path d="M5.66086416,15 C12.4537717,15 16.1682878,9.22960508 16.1682878,4.22591413 C16.1682878,4.06201517 16.165032,3.89885573 16.1578623,3.73643393 C16.8789487,3.20191974 17.5057153,2.53488379 18,1.77556254 C17.3383135,2.07714992 16.626227,2.28017732 15.8792193,2.37172434 C16.641707,1.90291577 17.2270723,1.1613143 17.5031953,0.277223775 C16.7896682,0.710963164 15.9994605,1.02620921 15.1581322,1.19638224 C14.4842057,0.460317196 13.5247962,0 12.4624261,0 C10.423006,0 8.76914944,1.69582912 8.76914944,3.78626794 C8.76914944,4.08342507 8.80154944,4.37246245 8.86491063,4.6496856 C5.79552105,4.49132493 3.07389321,2.98449603 1.25263606,0.693244626 C0.935472496,1.2528607 0.752591325,1.90291577 0.752591325,2.59652953 C0.752591325,3.91029895 1.40455723,5.07013671 2.3960067,5.74861588 C1.79012138,5.7294208 1.22095546,5.55887739 0.723430123,5.27500916 C0.722886499,5.29089689 0.722886499,5.30638636 0.722886499,5.32336663 C0.722886499,7.15725331 1.99585953,8.68844581 3.6857161,9.03543695 C3.37539315,9.1221852 3.04886959,9.16869637 2.71190664,9.16869637 C2.47430427,9.16869637 2.2428219,9.14471738 2.01782013,9.10040617 C2.48798426,10.6050202 3.85131728,11.6998888 5.46773387,11.7305283 C4.20376083,12.7464005 2.61146545,13.3514216 0.880928883,13.3514216 C0.583205319,13.3514216 0.289082962,13.3340573 0,13.299003 C1.63441658,14.3732011 3.57519552,15 5.66105503,15" id="path3611"></path>
            </g>
        </g>
    </g>
</svg>